<svg xmlns="http://www.w3.org/2000/svg" xmlns:xlink="http://www.w3.org/1999/xlink" viewBox="0 0 30.26 41.27"><defs><style>.cls-1{fill:none;}.cls-2{clip-path:url(#clip-path);}</style><clipPath id="clip-path" transform="translate(-9.83 -4.6)"><rect class="cls-1" width="50" height="50"/></clipPath></defs><g id="Layer_2" data-name="Layer 2"><g id="Layer_1-2" data-name="Layer 1"><g class="cls-2"><path d="M34.42,40c-.46-5.12-2.91-7.58-6.15-9.9V26.7c.41-.29.81-.58,1.21-.85l.38-.26c4.56,3.19,8.61,6.62,9.19,14.31a3.29,3.29,0,0,1,1,.74c-.38-8.52-4.72-12.38-9.36-15.66,4.6-3.21,9-6.91,9.36-15.16a3.41,3.41,0,0,1-1,.74C38.41,18.48,33.79,21.67,28.92,25c-.82.56-1.64,1.13-2.45,1.72s-1.87,1.31-2.76,1.91C19.48,31.51,16.05,33.82,15.5,40a3.16,3.16,0,0,1,.95.75c.26-4.85,2.27-7.22,5.2-9.42v12a2.9,2.9,0,0,1,1-.74v-12l1.62-1.11c.9-.6,1.84-1.23,2.79-1.94l.21-.14V42.61a3.1,3.1,0,0,1,1,.74v-12c2.93,2.2,4.94,4.57,5.2,9.42A3,3,0,0,1,34.42,40Z" transform="translate(-9.83 -4.6)"/><path d="M22.18,6c0,.66,1.14,1.38,2.78,1.38S27.74,6.63,27.74,6,26.6,4.6,25,4.6,22.18,5.32,22.18,6Z" transform="translate(-9.83 -4.6)"/><path d="M27.74,44.49c0-.66-1.14-1.38-2.78-1.38s-2.78.72-2.78,1.38,1.14,1.37,2.78,1.37S27.74,45.14,27.74,44.49Z" transform="translate(-9.83 -4.6)"/><path d="M39.59,41.82c0-.65-1.14-1.37-2.78-1.37S34,41.17,34,41.82s1.14,1.38,2.77,1.38S39.59,42.47,39.59,41.82Z" transform="translate(-9.83 -4.6)"/><ellipse cx="3.27" cy="4.04" rx="2.78" ry="1.38"/><path d="M10.87,39.9c.63-8.4,5.41-11.71,10.46-15.2.81-.56,1.62-1.12,2.41-1.7,1-.7,1.9-1.32,2.8-1.93,4-2.7,7.31-4.9,7.87-10.6a2.84,2.84,0,0,1-.94-.74c-.27,4.6-2.29,6.82-5.2,8.94V7.11a3.1,3.1,0,0,1-1,.74V19.37L26,20.24c-.91.61-1.85,1.24-2.83,2-.16.13-.34.24-.5.36V7.85a2.9,2.9,0,0,1-1-.74V18.67c-2.92-2.12-4.93-4.34-5.2-8.94a2.84,2.84,0,0,1-.94.74c.48,4.86,2.92,7.17,6.14,9.42v3.37l-.89.62-.71.49c-4.51-3.13-8.58-6.4-9.18-13.81a3.18,3.18,0,0,1-1-.74c.39,8.25,4.76,12,9.35,15.16-4.63,3.28-9,7.14-9.35,15.66A3.18,3.18,0,0,1,10.87,39.9Z" transform="translate(-9.83 -4.6)"/><ellipse cx="3.27" cy="37.23" rx="2.78" ry="1.38"/><path d="M36.81,10c1.64,0,2.78-.72,2.78-1.37s-1.14-1.38-2.78-1.38S34,8,34,8.64,35.18,10,36.81,10Z" transform="translate(-9.83 -4.6)"/></g></g></g></svg>