<svg xmlns="http://www.w3.org/2000/svg" xmlns:xlink="http://www.w3.org/1999/xlink" viewBox="0 0 39.81 39.81"><defs><style>.cls-1,.cls-3{fill:none;}.cls-2{clip-path:url(#clip-path);}.cls-3{stroke:#000;stroke-linecap:round;stroke-linejoin:round;}</style><clipPath id="clip-path" transform="translate(-5.1 -5.1)"><rect class="cls-1" width="50" height="50"/></clipPath></defs><g id="Layer_2" data-name="Layer 2"><g id="Layer_1-2" data-name="Layer 1"><g class="cls-2"><path class="cls-3" d="M31.57,8.34h0a7.74,7.74,0,0,1,7.74,7.74v0a7.74,7.74,0,0,1-7.74,7.74H23.83a0,0,0,0,1,0,0V16.08a7.74,7.74,0,0,1,7.74-7.74Z"/><path class="cls-3" d="M21.18,28.92h0a7.74,7.74,0,0,1,7.74,7.74v0a7.74,7.74,0,0,1-7.74,7.74H13.44a0,0,0,0,1,0,0V36.66A7.74,7.74,0,0,1,21.18,28.92Z" transform="translate(37.27 68.23) rotate(-180)"/><path class="cls-3" d="M29.6,6.38h0a7.74,7.74,0,0,1,7.74,7.74v0a7.74,7.74,0,0,1-7.74,7.74H21.86a0,0,0,0,1,0,0V14.12A7.74,7.74,0,0,1,29.6,6.38Z"/><path class="cls-3" d="M19.22,27h0A7.74,7.74,0,0,1,27,34.7v0a7.74,7.74,0,0,1-7.74,7.74H11.48a0,0,0,0,1,0,0V34.7A7.74,7.74,0,0,1,19.22,27Z" transform="translate(33.34 64.31) rotate(-180)"/><path class="cls-3" d="M27.64,4.42h0a7.74,7.74,0,0,1,7.74,7.74v0a7.74,7.74,0,0,1-7.74,7.74H19.9a0,0,0,0,1,0,0V12.16a7.74,7.74,0,0,1,7.74-7.74Z"/><path class="cls-3" d="M17.26,25h0A7.74,7.74,0,0,1,25,32.74v0a7.74,7.74,0,0,1-7.74,7.74H9.52a0,0,0,0,1,0,0V32.74A7.74,7.74,0,0,1,17.26,25Z" transform="translate(29.42 60.38) rotate(-180)"/><path class="cls-3" d="M25.68,2.46h0a7.74,7.74,0,0,1,7.74,7.74v0a7.74,7.74,0,0,1-7.74,7.74H17.94a0,0,0,0,1,0,0V10.2a7.74,7.74,0,0,1,7.74-7.74Z"/><path class="cls-3" d="M15.3,23h0A7.74,7.74,0,0,1,23,30.78v0a7.74,7.74,0,0,1-7.74,7.74H7.56a0,0,0,0,1,0,0V30.78A7.74,7.74,0,0,1,15.3,23Z" transform="translate(25.5 56.46) rotate(-180)"/><path class="cls-3" d="M23.72.5h0a7.74,7.74,0,0,1,7.74,7.74v0A7.74,7.74,0,0,1,23.72,16H16a0,0,0,0,1,0,0V8.24A7.74,7.74,0,0,1,23.72.5Z"/><path class="cls-3" d="M13.34,21.08h0a7.74,7.74,0,0,1,7.74,7.74v0a7.74,7.74,0,0,1-7.74,7.74H5.6a0,0,0,0,1,0,0V28.82a7.74,7.74,0,0,1,7.74-7.74Z" transform="translate(21.58 52.54) rotate(-180)"/></g></g></g></svg>