<svg xmlns="http://www.w3.org/2000/svg" viewBox="0 0 50 50"><defs><style>.cls-1{fill:none;}</style></defs><g id="Layer_2" data-name="Layer 2"><g id="Layer_1-2" data-name="Layer 1"><path d="M47,28.57l-4-2.3L47,24a.5.5,0,0,0,0-.87L30.39,13.53V5.13l2.43,2.43.71-.7L30.24,3.57a.51.51,0,0,0-.71,0L26.25,6.86l.71.7,2.43-2.43V13l-4.14-2.39a.5.5,0,0,0-.5,0L20.55,13V3.76h-1v9.81L13.09,17.3,8.83,13.06h3.43v-1H7.61a.51.51,0,0,0-.5.5v4.65h1V13.77l4.08,4L3,23.1A.5.5,0,0,0,3,24l4,2.3-4,2.3a.48.48,0,0,0-.25.43v4.7a.5.5,0,0,0,.25.44L24.75,46.68h0a.47.47,0,0,0,.46,0h0L47,34.14a.5.5,0,0,0,.25-.44V29A.48.48,0,0,0,47,28.57ZM19.55,14.72V22a.71.71,0,0,1-.45.67.69.69,0,0,1-.67-.06.46.46,0,0,0-.06-.23.48.48,0,0,0-.45-.25L13.82,18ZM4.28,23.54l8.64-5L15.4,21a.5.5,0,0,0-.07.58.52.52,0,0,0,.44.25.57.57,0,0,0,.25-.06.3.3,0,0,0,.08-.08l1.5,1.49a1.66,1.66,0,0,0,1.21.51,1.77,1.77,0,0,0,.67-.13A1.72,1.72,0,0,0,20.55,22V21.5a.45.45,0,0,0,.11,0,.47.47,0,0,0,.25-.07.5.5,0,0,0,.18-.68.48.48,0,0,0-.54-.23V14.14L25,11.57l4.39,2.54v9.11h0a.45.45,0,0,0,.05.25.51.51,0,0,0,.44.25.57.57,0,0,0,.25-.06.52.52,0,0,0,.24-.44h0V20.89h0a.54.54,0,0,0,.25-.06.51.51,0,0,0,.18-.69.46.46,0,0,0-.47-.24V14.68l15.33,8.86L25,35.5ZM24.5,45.38l-20.72-12V29.86l20.72,12ZM25,41,4.28,29,8,26.85l16.74,9.66a.48.48,0,0,0,.5,0L42,26.85,45.72,29Zm21.22-7.55-20.72,12V41.83l20.72-12Z"/><path d="M36.4,27.48a.54.54,0,0,0,.25-.06.5.5,0,1,0-.5-.87.51.51,0,0,0-.18.69A.49.49,0,0,0,36.4,27.48Z"/><path d="M31,30.62a.45.45,0,0,0,.25-.07.49.49,0,1,0-.25.07Z"/><path d="M33.44,28.12a.51.51,0,0,0-.19.68.51.51,0,0,0,.44.25.57.57,0,0,0,.25-.06.51.51,0,0,0,.18-.69A.49.49,0,0,0,33.44,28.12Z"/><path d="M41.83,24.35a.45.45,0,0,0,.25-.07.5.5,0,1,0-.5-.86.5.5,0,0,0,.25.93Z"/><path d="M25.29,32.82a.51.51,0,0,0-.18.69.5.5,0,0,0,.43.25.45.45,0,0,0,.25-.07.5.5,0,1,0-.5-.87Z"/><path d="M28,31.26a.5.5,0,0,0-.19.68.52.52,0,0,0,.44.25.47.47,0,0,0,.25-.07.5.5,0,1,0-.5-.86Z"/><path d="M39.12,25.92a.47.47,0,0,0,.25-.07.5.5,0,1,0-.68-.18A.48.48,0,0,0,39.12,25.92Z"/><path d="M31.26,26.87a.5.5,0,0,0,.26.93.47.47,0,0,0,.25-.07.5.5,0,1,0-.51-.86Z"/><path d="M28.55,28.43a.51.51,0,0,0-.18.69.5.5,0,0,0,.43.25.55.55,0,0,0,.25-.07.5.5,0,0,0,.18-.68A.5.5,0,0,0,28.55,28.43Z"/><path d="M39.66,23.1a.59.59,0,0,0,.25-.07.49.49,0,0,0,.18-.68.5.5,0,1,0-.86.5A.5.5,0,0,0,39.66,23.1Z"/><path d="M34.23,26.23a.54.54,0,0,0,.25-.06.51.51,0,0,0,.18-.69.5.5,0,1,0-.43.75Z"/><path d="M23.12,31.57a.5.5,0,0,0,.25.93.45.45,0,0,0,.25-.07.5.5,0,0,0-.5-.86Z"/><path d="M25.84,30a.5.5,0,0,0,.25.93.57.57,0,0,0,.25-.06.51.51,0,0,0,.18-.69A.5.5,0,0,0,25.84,30Z"/><path d="M36.94,24.66a.58.58,0,0,0,.26-.06.51.51,0,0,0,.18-.69.5.5,0,1,0-.44.75Z"/><path d="M26.38,27.18a.5.5,0,0,0,.25.93.57.57,0,0,0,.25-.06.51.51,0,0,0,.18-.69A.49.49,0,0,0,26.38,27.18Z"/><path d="M21,30.31a.51.51,0,0,0-.18.69.5.5,0,0,0,.43.25.59.59,0,0,0,.25-.07.49.49,0,0,0,.18-.68A.51.51,0,0,0,21,30.31Z"/><path d="M29.09,25.61a.51.51,0,0,0-.18.69.5.5,0,0,0,.43.25.55.55,0,0,0,.25-.07.5.5,0,1,0-.5-.87Z"/><path d="M37.49,21.84a.57.57,0,0,0,.25-.06.51.51,0,0,0,.18-.69.5.5,0,1,0-.43.75Z"/><path d="M23.66,28.75a.5.5,0,0,0,.25.93.43.43,0,0,0,.25-.07.5.5,0,0,0,.19-.68A.51.51,0,0,0,23.66,28.75Z"/><path d="M32.06,25a.45.45,0,0,0,.25-.07.49.49,0,1,0-.25.07Z"/><path d="M34.77,23.41a.45.45,0,0,0,.25-.07.5.5,0,1,0-.5-.86.5.5,0,0,0,.25.93Z"/><path d="M18.78,29.06a.51.51,0,0,0-.19.68A.51.51,0,0,0,19,30a.57.57,0,0,0,.25-.06.51.51,0,0,0,.18-.69A.49.49,0,0,0,18.78,29.06Z"/><path d="M26.92,24.36a.5.5,0,0,0,.25.93.45.45,0,0,0,.25-.07.5.5,0,0,0-.5-.86Z"/><path d="M24.21,25.92a.52.52,0,0,0-.19.69.52.52,0,0,0,.44.25.47.47,0,0,0,.25-.07.49.49,0,0,0,.18-.68A.51.51,0,0,0,24.21,25.92Z"/><path d="M21.49,27.49a.5.5,0,0,0,.25.93.54.54,0,0,0,.25-.06.5.5,0,0,0,.18-.68A.49.49,0,0,0,21.49,27.49Z"/><path d="M32.6,22.16a.55.55,0,0,0,.25-.07.5.5,0,0,0-.5-.87.51.51,0,0,0-.18.69A.5.5,0,0,0,32.6,22.16Z"/><path d="M35.32,20.59a.47.47,0,0,0,.25-.07.49.49,0,0,0,.18-.68.51.51,0,0,0-.68-.19.52.52,0,0,0-.19.69A.52.52,0,0,0,35.32,20.59Z"/><path d="M19.32,26.24a.5.5,0,0,0,.25.93.45.45,0,0,0,.25-.07.5.5,0,0,0-.5-.86Z"/><path d="M16.6,27.8a.51.51,0,0,0-.18.69.5.5,0,0,0,.44.25.42.42,0,0,0,.24-.07.5.5,0,0,0,.19-.68A.52.52,0,0,0,16.6,27.8Z"/><path d="M24.75,23.1a.51.51,0,0,0-.18.69A.5.5,0,0,0,25,24a.55.55,0,0,0,.25-.07.49.49,0,0,0,.18-.68A.5.5,0,0,0,24.75,23.1Z"/><path d="M33.15,19.33a.57.57,0,0,0,.25-.06.51.51,0,0,0,.18-.69.5.5,0,0,0-.87.5A.51.51,0,0,0,33.15,19.33Z"/><path d="M22,24.67a.5.5,0,0,0-.18.68.51.51,0,0,0,.68.19.5.5,0,1,0-.5-.87Z"/><path d="M27.71,22.47A.48.48,0,0,0,28,22.4a.5.5,0,0,0,.18-.68.5.5,0,1,0-.44.75Z"/><path d="M17.15,25a.5.5,0,0,0-.19.68.51.51,0,0,0,.44.25.47.47,0,0,0,.25-.07.5.5,0,1,0-.5-.86Z"/><path d="M31.22,18a.5.5,0,1,0-.5-.86.5.5,0,0,0,.25.93A.45.45,0,0,0,31.22,18Z"/><path d="M23.26,22a.49.49,0,0,0-.68-.18.51.51,0,0,0-.19.68.52.52,0,0,0,.44.25.57.57,0,0,0,.25-.06A.51.51,0,0,0,23.26,22Z"/><path d="M14.43,26.55a.5.5,0,0,0-.18.68.48.48,0,0,0,.43.25.54.54,0,0,0,.25-.06.51.51,0,0,0,.19-.68A.52.52,0,0,0,14.43,26.55Z"/><path d="M25.54,21.22a.55.55,0,0,0,.25-.07.5.5,0,0,0-.5-.87.51.51,0,0,0-.18.69A.5.5,0,0,0,25.54,21.22Z"/><path d="M19.86,23.42a.5.5,0,0,0,.25.93.45.45,0,0,0,.25-.07.5.5,0,0,0-.5-.86Z"/><path d="M28.26,19.65a.47.47,0,0,0,.25-.07.5.5,0,0,0-.5-.86.5.5,0,0,0-.19.68A.52.52,0,0,0,28.26,19.65Z"/><path d="M28.8,16.83a.55.55,0,0,0,.25-.07.5.5,0,0,0,.18-.68.5.5,0,1,0-.86.5A.5.5,0,0,0,28.8,16.83Z"/><path d="M12.26,25.3a.5.5,0,0,0,.25.93.45.45,0,0,0,.25-.07.5.5,0,0,0-.5-.86Z"/><path d="M15,23.73a.5.5,0,0,0-.19.68.51.51,0,0,0,.44.25.5.5,0,0,0,.24-.06.51.51,0,0,0,.19-.69A.5.5,0,0,0,15,23.73Z"/><path d="M23.37,20a.45.45,0,0,0,.25-.07.49.49,0,1,0-.25.07Z"/><path d="M26.09,18.39a.5.5,0,0,0,.24-.06.51.51,0,0,0,.19-.69.5.5,0,0,0-.68-.18.51.51,0,0,0-.19.68A.51.51,0,0,0,26.09,18.39Z"/><path d="M26.63,15.57a.47.47,0,0,0,.25-.07.5.5,0,0,0-.5-.86.51.51,0,0,0-.19.68A.51.51,0,0,0,26.63,15.57Z"/><path d="M23.91,17.14a.45.45,0,0,0,.25-.07.5.5,0,1,0-.5-.86.5.5,0,0,0,.25.93Z"/><path d="M10.09,24.05a.5.5,0,0,0-.19.68.52.52,0,0,0,.44.25.47.47,0,0,0,.25-.07.5.5,0,0,0-.5-.86Z"/><path d="M21.45,18.64a.49.49,0,0,0,.18-.68.5.5,0,1,0-.86.5.5.5,0,0,0,.43.25A.59.59,0,0,0,21.45,18.64Z"/><path d="M12.8,22.48a.5.5,0,0,0,.25.93.45.45,0,0,0,.25-.07.5.5,0,1,0-.5-.86Z"/><path d="M18.48,20.28a.52.52,0,0,0,.25-.07.5.5,0,1,0-.5-.87.5.5,0,0,0-.18.69A.5.5,0,0,0,18.48,20.28Z"/><path d="M21.74,15.88a.54.54,0,0,0,.25-.06.5.5,0,0,0-.5-.87.51.51,0,0,0-.18.69A.49.49,0,0,0,21.74,15.88Z"/><path d="M19,17.45a.47.47,0,0,0,.25-.07.5.5,0,0,0,.18-.68.49.49,0,0,0-.68-.18.51.51,0,0,0-.19.68A.51.51,0,0,0,19,17.45Z"/><path d="M16.06,18.09a.5.5,0,0,0,.25.93.45.45,0,0,0,.25-.07.5.5,0,0,0-.5-.86Z"/><path d="M13.35,19.65a.51.51,0,0,0-.19.69.5.5,0,0,0,.44.25.47.47,0,0,0,.25-.07.49.49,0,0,0,.18-.68A.51.51,0,0,0,13.35,19.65Z"/><path d="M7.92,22.79a.5.5,0,0,0,.25.93.57.57,0,0,0,.25-.06A.51.51,0,0,0,8.6,23,.5.5,0,0,0,7.92,22.79Z"/><path d="M24.46,14.32a.47.47,0,0,0,.25-.07.49.49,0,0,0,.18-.68.51.51,0,0,0-.68-.19.52.52,0,0,0-.19.69A.51.51,0,0,0,24.46,14.32Z"/><path d="M10.63,21.22a.51.51,0,0,0-.18.69.5.5,0,0,0,.43.25.55.55,0,0,0,.25-.07.5.5,0,0,0,.18-.68A.5.5,0,0,0,10.63,21.22Z"/><rect class="cls-1" width="50" height="50"/></g></g></svg>