<?xml version="1.0" encoding="utf-8"?>
<!-- Generator: Adobe Illustrator 25.0.1, SVG Export Plug-In . SVG Version: 6.00 Build 0)  -->
<svg version="1.1" id="Layer_1" xmlns="http://www.w3.org/2000/svg" xmlns:xlink="http://www.w3.org/1999/xlink" x="0px" y="0px"
	 viewBox="0 0 19 12" style="enable-background:new 0 0 19 12;" xml:space="preserve">
<style type="text/css">
	.st0{enable-background:new    ;}
	.st1{fill:#181A1E;}
</style>
<desc>Created with Sketch.</desc>
<g id="Desk">
	<g id="Silverskin---HP-I" transform="translate(-317.000000, -4135.000000)">
		<g class="st0">
			<path class="st1" d="M318,4145.8l0.1-0.4l4.1-8.7c0.2-0.4,0.5-0.6,1-0.6h3.2c0.3,0,0.5,0.1,0.6,0.2c0.1,0.2,0.1,0.4,0,0.6l-3,8.7
				c-0.1,0.5-0.4,0.7-0.9,0.7h-4.4C318.2,4146.3,318,4146.1,318,4145.8z M325.7,4145.8c0-0.2,0-0.3,0.1-0.4l4-8.7
				c0.2-0.4,0.5-0.6,1-0.6h3.2c0.3,0,0.5,0.1,0.5,0.2c0.1,0.2,0.1,0.4,0,0.6l-2.9,8.7c-0.1,0.5-0.4,0.7-0.9,0.7h-4.4
				C325.9,4146.3,325.7,4146.1,325.7,4145.8z"/>
		</g>
	</g>
</g>
</svg>
